<?xml version="1.0" encoding="UTF-8"?>
<svg height="128px" viewBox="0 0 128 128" width="128px" xmlns="http://www.w3.org/2000/svg" xmlns:xlink="http://www.w3.org/1999/xlink">
    <filter id="a" height="100%" width="100%" x="0%" y="0%">
        <feColorMatrix color-interpolation-filters="sRGB" values="0 0 0 0 1 0 0 0 0 1 0 0 0 0 1 0 0 0 1 0"/>
    </filter>
    <mask id="b">
        <g filter="url(#a)">
            <rect fill-opacity="0.1" height="153.6" width="153.6" x="-12.8" y="-12.8"/>
        </g>
    </mask>
    <clipPath id="c">
        <rect height="152" width="192"/>
    </clipPath>
    <path d="m 124 65 c 0 33.136719 -26.863281 60 -60 60 s -60 -26.863281 -60 -60 s 26.863281 -60 60 -60 s 60 26.863281 60 60 z m 0 0" fill="#d5d3cf"/>
    <path d="m 64 7 c 30.929688 0 56 25.070312 56 56 v 2 c 0 30.929688 -25.070312 56 -56 56 s -56 -25.070312 -56 -56 v -2 c 0 -30.929688 25.070312 -56 56 -56 z m 0 0" fill="#d5d3cf"/>
    <path d="m 124 63 c 0 33.136719 -26.863281 60 -60 60 s -60 -26.863281 -60 -60 s 26.863281 -60 60 -60 s 60 26.863281 60 60 z m 0 0" fill="#f6f5f4"/>
    <g mask="url(#b)">
        <g clip-path="url(#c)" transform="matrix(1 0 0 1 -8 -16)">
            <path d="m 72 25 c -29.824219 0 -54 24.175781 -54 54 c 0.007812 0.390625 0.023438 0.78125 0.042969 1.171875 c 0.453125 -29.484375 24.472656 -53.152344 53.957031 -53.171875 c 29.355469 0.015625 53.320312 23.480469 53.957031 52.828125 c 0.015625 -0.277344 0.03125 -0.550781 0.042969 -0.828125 c 0 -29.824219 -24.175781 -54 -54 -54 z m 0 0"/>
        </g>
    </g>
    <path d="m 117.925781 64.035156 c 0 29.804688 -24.140625 53.964844 -53.925781 53.964844 s -53.925781 -24.160156 -53.925781 -53.964844 c 0 -29.800781 24.140625 -53.960937 53.925781 -53.960937 s 53.925781 24.160156 53.925781 53.960937 z m 0 0" fill="#5e5c64"/>
    <g fill-rule="evenodd">
        <path d="m 64.003906 10 c 21.863282 0.003906 41.558594 13.21875 49.871094 33.464844 c 8.316406 20.246094 3.597656 43.515625 -11.9375 58.914062 l -37.9375 -38.378906 z m 0 0" fill="#f5c211"/>
        <path d="m 64 9 c 15.671875 0 30.566406 6.824219 40.808594 18.699219 c 10.246094 11.875 14.824218 27.625 12.546875 43.152343 l -53.355469 -7.851562 z m 0 0" fill="#f5c211"/>
        <path d="m 64.027344 65.390625 v -1.390625 l 38.132812 38.15625 l -0.71875 0.722656 z m 0 0" fill="#e5a50a"/>
    </g>
</svg>
